<?xml version="1.0" encoding="utf-8" ?>
<svg baseProfile="full" height="500" version="1.1" width="500" xmlns="http://www.w3.org/2000/svg" xmlns:ev="http://www.w3.org/2001/xml-events" xmlns:xlink="http://www.w3.org/1999/xlink"><defs /><rect fill="#000000" height="100%" width="100%" x="0" y="0" /><rect fill="none" height="480" stroke="#e67e22" stroke-width="4" width="480" x="10" y="10" /><line stroke="#e67e22" stroke-width="2" x1="10" x2="490" y1="10" y2="490" /><line stroke="#e67e22" stroke-width="2" x1="10" x2="490" y1="490" y2="10" /><line stroke="#e67e22" stroke-width="2" x1="10" x2="250" y1="250" y2="10" /><line stroke="#e67e22" stroke-width="2" x1="250" x2="490" y1="10" y2="250" /><line stroke="#e67e22" stroke-width="2" x1="490" x2="250" y1="250" y2="490" /><line stroke="#e67e22" stroke-width="2" x1="250" x2="10" y1="490" y2="250" /><text fill="#ffffff" font-size="20px" font-weight="bold" text-anchor="middle" x="250" y="230">9</text><text fill="#ffffff" font-size="20px" font-weight="bold" text-anchor="middle" x="180" y="170">10</text><text fill="#ffffff" font-size="20px" font-weight="bold" text-anchor="middle" x="170" y="110">11</text><text fill="#ffffff" font-size="20px" font-weight="bold" text-anchor="middle" x="120" y="230">12</text><text fill="#ffffff" font-size="20px" font-weight="bold" text-anchor="middle" x="110" y="330">1</text><text fill="#ffffff" font-size="20px" font-weight="bold" text-anchor="middle" x="170" y="390">2</text><text fill="#ffffff" font-size="20px" font-weight="bold" text-anchor="middle" x="250" y="270">3</text><text fill="#ffffff" font-size="20px" font-weight="bold" text-anchor="middle" x="330" y="390">4</text><text fill="#ffffff" font-size="20px" font-weight="bold" text-anchor="middle" x="390" y="330">5</text><text fill="#ffffff" font-size="20px" font-weight="bold" text-anchor="middle" x="380" y="230">6</text><text fill="#ffffff" font-size="20px" font-weight="bold" text-anchor="middle" x="390" y="110">7</text><text fill="#ffffff" font-size="20px" font-weight="bold" text-anchor="middle" x="330" y="170">8</text><text fill="#ffffff" font-size="22px" font-weight="600" text-anchor="middle" x="80" y="60">बु</text><text fill="#ffffff" font-size="22px" font-weight="600" text-anchor="middle" x="120" y="180">शु</text><text fill="#ffffff" font-size="22px" font-weight="600" text-anchor="middle" x="80" y="280">श</text><text fill="#ffffff" font-size="22px" font-weight="600" text-anchor="middle" x="180" y="440">सू</text><text fill="#ffffff" font-size="22px" font-weight="600" text-anchor="middle" x="180" y="462">च</text><text fill="#ffffff" font-size="22px" font-weight="600" text-anchor="middle" x="180" y="484">के</text><text fill="#ffffff" font-size="22px" font-weight="600" text-anchor="middle" x="250" y="380">मं</text><text fill="#ffffff" font-size="22px" font-weight="600" text-anchor="middle" x="420" y="350">गु</text><text fill="#ffffff" font-size="22px" font-weight="600" text-anchor="middle" x="340" y="60">रा</text></svg>