<?xml version="1.0" encoding="utf-8" ?>
<svg baseProfile="tiny" height="600" version="1.2" width="600" xmlns="http://www.w3.org/2000/svg" xmlns:ev="http://www.w3.org/2001/xml-events" xmlns:xlink="http://www.w3.org/1999/xlink"><defs /><rect fill="#f9f9f9" height="600" stroke="#333" stroke-width="2" width="600" x="0" y="0" /><circle cx="300" cy="300" fill="none" r="250" stroke="#666" stroke-width="2" /><circle cx="300" cy="300" fill="none" r="200" stroke="#666" stroke-width="1" /><line stroke="#999" stroke-width="1" x1="300.0" x2="300.0" y1="100.0" y2="50.0" /><line stroke="#999" stroke-width="1" x1="400.0" x2="425.0" y1="126.7949" y2="83.4936" /><line stroke="#999" stroke-width="1" x1="473.2051" x2="516.5064" y1="200.0" y2="175.0" /><line stroke="#999" stroke-width="1" x1="500.0" x2="550.0" y1="300.0" y2="300.0" /><line stroke="#999" stroke-width="1" x1="473.2051" x2="516.5064" y1="400.0" y2="425.0" /><line stroke="#999" stroke-width="1" x1="400.0" x2="425.0" y1="473.2051" y2="516.5064" /><line stroke="#999" stroke-width="1" x1="300.0" x2="300.0" y1="500.0" y2="550.0" /><line stroke="#999" stroke-width="1" x1="200.0" x2="175.0" y1="473.2051" y2="516.5064" /><line stroke="#999" stroke-width="1" x1="126.7949" x2="83.4936" y1="400.0" y2="425.0" /><line stroke="#999" stroke-width="1" x1="100.0" x2="50.0" y1="300.0" y2="300.0" /><line stroke="#999" stroke-width="1" x1="126.7949" x2="83.4936" y1="200.0" y2="175.0" /><line stroke="#999" stroke-width="1" x1="200.0" x2="175.0" y1="126.7949" y2="83.4936" /><line stroke="#666" stroke-width="1" x1="300.0" x2="300.0" y1="150.0" y2="50.0" /><line stroke="#666" stroke-width="1" x1="375.0" x2="425.0" y1="170.0962" y2="83.4936" /><line stroke="#666" stroke-width="1" x1="429.9038" x2="516.5064" y1="225.0" y2="175.0" /><line stroke="#666" stroke-width="1" x1="450.0" x2="550.0" y1="300.0" y2="300.0" /><line stroke="#666" stroke-width="1" x1="429.9038" x2="516.5064" y1="375.0" y2="425.0" /><line stroke="#666" stroke-width="1" x1="375.0" x2="425.0" y1="429.9038" y2="516.5064" /><line stroke="#666" stroke-width="1" x1="300.0" x2="300.0" y1="450.0" y2="550.0" /><line stroke="#666" stroke-width="1" x1="225.0" x2="175.0" y1="429.9038" y2="516.5064" /><line stroke="#666" stroke-width="1" x1="170.0962" x2="83.4936" y1="375.0" y2="425.0" /><line stroke="#666" stroke-width="1" x1="150.0" x2="50.0" y1="300.0" y2="300.0" /><line stroke="#666" stroke-width="1" x1="170.0962" x2="83.4936" y1="225.0" y2="175.0" /><line stroke="#666" stroke-width="1" x1="225.0" x2="175.0" y1="170.0962" y2="83.4936" /><text fill="#333" font-family="Arial" font-size="12px" text-anchor="start" x="369.8811421776806" y="39.20002690195156">मेष</text><text fill="#333" font-family="Arial" font-size="12px" text-anchor="start" x="490.91883092036784" y="109.08116907963219">वृषभ</text><text fill="#333" font-family="Arial" font-size="12px" text-anchor="start" x="560.7999730980484" y="230.1188578223194">मिथुन</text><text fill="#333" font-family="Arial" font-size="12px" text-anchor="start" x="560.7999730980484" y="369.8811421776806">कर्कट</text><text fill="#333" font-family="Arial" font-size="12px" text-anchor="start" x="490.91883092036784" y="490.9188309203678">सिंह</text><text fill="#333" font-family="Arial" font-size="12px" text-anchor="start" x="369.8811421776806" y="560.7999730980484">कन्या</text><text fill="#333" font-family="Arial" font-size="12px" text-anchor="end" x="230.11885782231937" y="560.7999730980484">तुला</text><text fill="#333" font-family="Arial" font-size="12px" text-anchor="end" x="109.08116907963219" y="490.91883092036784">वृश्चिक</text><text fill="#333" font-family="Arial" font-size="12px" text-anchor="end" x="39.20002690195156" y="369.88114217768066">धनु</text><text fill="#333" font-family="Arial" font-size="12px" text-anchor="end" x="39.20002690195156" y="230.1188578223194">मकर</text><text fill="#333" font-family="Arial" font-size="12px" text-anchor="end" x="109.08116907963213" y="109.08116907963219">कुम्भ</text><text fill="#333" font-family="Arial" font-size="12px" text-anchor="end" x="230.11885782231943" y="39.20002690195156">मीन</text><text fill="#666" font-family="Arial" font-size="14px" text-anchor="middle" x="333.6464758633277" y="174.42964258242114">1</text><text fill="#666" font-family="Arial" font-size="14px" text-anchor="middle" x="391.9238815542512" y="208.07611844574882">2</text><text fill="#666" font-family="Arial" font-size="14px" text-anchor="middle" x="425.57035741757886" y="266.3535241366723">3</text><text fill="#666" font-family="Arial" font-size="14px" text-anchor="middle" x="425.57035741757886" y="333.6464758633277">4</text><text fill="#666" font-family="Arial" font-size="14px" text-anchor="middle" x="391.9238815542512" y="391.9238815542512">5</text><text fill="#666" font-family="Arial" font-size="14px" text-anchor="middle" x="333.6464758633277" y="425.57035741757886">6</text><text fill="#666" font-family="Arial" font-size="14px" text-anchor="middle" x="266.35352413667226" y="425.57035741757886">7</text><text fill="#666" font-family="Arial" font-size="14px" text-anchor="middle" x="208.07611844574882" y="391.9238815542512">8</text><text fill="#666" font-family="Arial" font-size="14px" text-anchor="middle" x="174.42964258242114" y="333.64647586332774">9</text><text fill="#666" font-family="Arial" font-size="14px" text-anchor="middle" x="174.42964258242114" y="266.3535241366723">10</text><text fill="#666" font-family="Arial" font-size="14px" text-anchor="middle" x="208.07611844574882" y="208.07611844574882">11</text><text fill="#666" font-family="Arial" font-size="14px" text-anchor="middle" x="266.3535241366723" y="174.42964258242114">12</text><text fill="#d32f2f" font-family="Arial" font-size="10px" font-weight="bold" text-anchor="middle" x="483.525906994923" y="349.17561856947896">ASC</text><circle cx="136.0947" cy="258.8169" fill="#4CAF50" r="8" stroke="#333" stroke-width="1" /><text fill="white" font-family="Arial" font-size="8px" font-weight="bold" text-anchor="middle" x="136.09468922550244" y="259.81688331469593">S</text><circle cx="337.4598" cy="449.3746" fill="#4CAF50" r="8" stroke="#333" stroke-width="1" /><text fill="white" font-family="Arial" font-size="8px" font-weight="bold" text-anchor="middle" x="337.4597528475194" y="450.3745859127407">M</text><circle cx="328.2712" cy="422.7874" fill="#4CAF50" r="8" stroke="#333" stroke-width="1" /><text fill="white" font-family="Arial" font-size="8px" font-weight="bold" text-anchor="middle" x="328.27117508597973" y="423.7873798859552">M</text><circle cx="125.7121" cy="284.2291" fill="#4CAF50" r="8" stroke="#333" stroke-width="1" /><text fill="white" font-family="Arial" font-size="8px" font-weight="bold" text-anchor="middle" x="125.71208533749666" y="285.22905194365416">M</text><circle cx="333.5974" cy="178.5619" fill="#4CAF50" r="8" stroke="#333" stroke-width="1" /><text fill="white" font-family="Arial" font-size="8px" font-weight="bold" text-anchor="middle" x="333.5973562219149" y="179.56187725883706">J</text><circle cx="168.3001" cy="383.613" fill="#4CAF50" r="8" stroke="#333" stroke-width="1" /><text fill="white" font-family="Arial" font-size="8px" font-weight="bold" text-anchor="middle" x="168.3001076367875" y="384.61302740314">V</text><circle cx="386.9192" cy="206.037" fill="#4CAF50" r="8" stroke="#333" stroke-width="1" /><text fill="white" font-family="Arial" font-size="8px" font-weight="bold" text-anchor="middle" x="386.9192049200303" y="207.03696569357834">S</text><circle cx="431.8168" cy="234.9358" fill="#4CAF50" r="8" stroke="#333" stroke-width="1" /><text fill="white" font-family="Arial" font-size="8px" font-weight="bold" text-anchor="middle" x="431.8167518998819" y="235.935847668897">R</text><circle cx="186.1175" cy="356.2119" fill="#4CAF50" r="8" stroke="#333" stroke-width="1" /><text fill="white" font-family="Arial" font-size="8px" font-weight="bold" text-anchor="middle" x="186.1175000592857" y="357.21188670782374">K</text><line opacity="0.6" stroke="#FF9800" stroke-width="1" x1="136.0947" x2="125.7121" y1="258.8169" y2="284.2291" /><line opacity="0.6" stroke="#FF9800" stroke-width="1" x1="337.4598" x2="328.2712" y1="449.3746" y2="422.7874" /><line opacity="0.6" stroke="#FF9800" stroke-width="1" x1="328.2712" x2="337.4598" y1="422.7874" y2="449.3746" /><line opacity="0.6" stroke="#FF9800" stroke-width="1" x1="125.7121" x2="136.0947" y1="284.2291" y2="258.8169" /><line opacity="0.6" stroke="#FF9800" stroke-width="1" x1="168.3001" x2="186.1175" y1="383.613" y2="356.2119" /><line opacity="0.6" stroke="#FF9800" stroke-width="1" x1="186.1175" x2="168.3001" y1="356.2119" y2="383.613" /><text fill="#333" font-family="Arial" font-size="20px" font-weight="bold" text-anchor="middle" x="300" y="30">जन्म कुण्डली</text><text fill="#666" font-family="Arial" font-size="12px" text-anchor="middle" x="300" y="550">जन्म मिति: 2059-01-04</text></svg>